# xmcd
#
# Track frame offsets: 
#        150
#        31782
#        48209
#        71767
#        89932
#        99415
#        114346
#        118834
#        126111
#        131711
#        138494
#        146342
#        162507
#        171598
#
# Disc length: 2563 seconds
#
# Revision: 0
# Processed by: cddbd v1.5.2PL0 Copyright (c) Steve Scherf et al.
# Submitted via: ExactAudioCopyFreeDBPlugin 1.0
#
DISCID=d00a010e
DTITLE=Christoph Spering - Gluck - Iphigenia in Aulis Disc 1
DYEAR=2014
DGENRE=Opera
TTITLE0=Ouverture
TTITLE1=O Artemis, Erzürnte! (1. Akt) Start
TTITLE2=Langer darfst du nicht widerstreben
TTITLE3=Du siehst, wie laut das Heer schon wutet
TTITLE4=Klytamnestra mit der Tochter!
TTITLE5=Welch ein Reiz!
TTITLE6=Wie gern hort man Ohr dieses schmeichelnde Lob
TTITLE7=Menuett
TTITLE8=Die Liebe, durch die sie mich ehren
TTITLE9=Lass uns allein!
TTITLE10=Waffne dich mit zurnendem Mute
TTITLE11=Hab' ich recht gehort
TTITLE12=Ist's ein Traum, der mich tauscht
TTITLE13=Mein Bangen - Mein Verdacht - Mein Kummer - Mein Schmerz
EXTD=
EXTT0=
EXTT1=
EXTT2=
EXTT3=
EXTT4=
EXTT5=
EXTT6=
EXTT7=
EXTT8=
EXTT9=
EXTT10=
EXTT11=
EXTT12=
EXTT13=
PLAYORDER=
